<?xml version="1.0" encoding="utf-8"?>
<!-- Generator: Adobe Illustrator 19.0.0, SVG Export Plug-In . SVG Version: 6.00 Build 0)  -->
<svg version="1.1" id="Layer_1" xmlns="http://www.w3.org/2000/svg" xmlns:xlink="http://www.w3.org/1999/xlink" x="0px" y="0px"
	 viewBox="0 0 512 512" style="enable-background:new 0 0 512 512;" xml:space="preserve">
<style type="text/css">
	.st0{display:none;}
	.st1{display:inline;fill:#2E3F5B;}
	.st2{fill:#2066F3;}
</style>
<g id="XMLID_2_" class="st0">
	<path id="XMLID_38_" class="st1" d="M387.3,452.2c-36.1-1.5-66.4-18.3-88.5-50.2c-1.6-2.3-1.6-4.4-0.7-6.9
		c9-23.2,25.8-36.9,50-41.8c2.5-0.5,4.3-0.6,5,2.8c0.9,4.4,4.3,7.4,7.9,9.9c15.7,10.7,44.7,10.6,60.4-0.1c3.7-2.5,6.4-5.9,7.6-10.2
		c0.7-2.5,2-3,4.4-2.6c24.6,4.9,41.8,18.5,50.8,42.2c1.1,3,0.4,5-1.2,7.3C460.6,435.3,429.2,451.1,387.3,452.2z"/>
	<path id="XMLID_37_" class="st1" d="M141.4,278.5c-38.6-1.4-68.7-18.3-90.7-49.9c-1.4-2.1-1.9-3.9-0.9-6.4
		c8.8-23.3,25.3-37.2,49.7-42.1c2.9-0.6,4.9-0.8,5.7,3.1c0.9,4.4,4.5,7.3,8.1,9.7c15.4,10.3,44.6,10.1,60-0.4
		c3.9-2.6,6.5-6.2,7.8-10.6c0.6-1.9,1.3-2.6,3.5-2.2c25.2,4.6,42.5,18.6,51.6,42.6c0.9,2.3,0.6,4.1-0.7,6
		c-18.2,27.1-43.2,43.7-75.6,48.8c-2.5,0.4-4.9,0.8-7.4,0.9C148.7,278.2,145,278.3,141.4,278.5z"/>
	<path id="XMLID_36_" class="st1" d="M142.8,62c28.6,0,51.5,26,48.8,55.4c-1.2,13.1-3.4,26-9.4,38c-3.7,7.4-8.4,14-14.6,19.4
		c-14.9,13.1-34,13.3-49,0.4C105.6,164,99.2,149,96.1,132.4c-2.3-12.1-3.5-24.3,0.8-36.5C104.2,75.6,122.4,62,142.8,62z"/>
	<path id="XMLID_35_" class="st1" d="M391,235.5c26.1,0,48,21.7,48.8,49c0.4,15.8-2.6,31.1-9.8,45.4c-4,8-9.3,15-16.4,20.5
		c-14.2,10.9-31.2,10.9-45.1-0.2c-14.7-11.6-21.2-27.8-24.4-45.6c-2.2-12.5-3.1-25,1.9-37.3C353.8,248.1,371.4,235.5,391,235.5z"/>
	<path id="XMLID_27_" class="st1" d="M197.1,392c11.8,0,23.6-0.1,35.5,0.1c3.6,0.1,4.7-1.1,4.3-4.5c-0.3-2.8-0.2-5.7,0-8.5
		c0.4-4.6,4.7-6.7,8.3-3.8c9.9,8.2,19.5,16.6,29.1,25.1c2.7,2.4,2.4,5.5-0.2,7.9c-9.4,8.5-18.9,16.9-28.3,25.3c-1.8,1.6-3.8,2-6,1
		c-2-0.9-2.9-2.6-2.9-4.8c0-0.7,0-1.3,0-2c-0.1-11.2-0.1-11.1-11.1-11.2c-22.6-0.1-45.3,0.6-67.9-0.5c-30.3-1.4-55-27.8-55.7-58.2
		c-0.3-14-0.2-28-0.1-42c0.1-7.6,5.3-12.9,12.3-12.8c6.9,0.1,11.9,5.1,12,12.6c0.1,12.2,0,24.3,0,36.5c0,24.7,15.2,39.9,39.8,39.9
		C176.5,392,186.8,392,197.1,392z"/>
	<path id="XMLID_26_" class="st1" d="M302.3,125.2c-11.5,0-23,0.2-34.5-0.1c-4.1-0.1-5.2,1.3-4.8,5.1c0.3,2.6,0.2,5.3,0,8
		c-0.4,4.5-4.8,6.7-8.3,3.8c-9.9-8.2-19.6-16.6-29.1-25.1c-2.7-2.4-2.4-5.5,0.2-7.9c9.4-8.5,18.9-16.9,28.4-25.3
		c1.7-1.5,3.7-2.2,6-1c2.2,1.2,3,3,2.9,5.3c-0.1,2.8,0.2,5.7-0.1,8.5c-0.4,3.6,1.1,4.4,4.5,4.4c22.3-0.1,44.6-0.1,67-0.1
		c37.2,0,63.4,26.2,63.5,63.5c0,11.8,0,23.7,0,35.5c0,9-4.7,14.4-12.3,14.4c-7.6,0-12.2-5.3-12.2-14.5c-0.1-12.2,0-24.3,0-36.5
		c-0.1-22.4-15.7-37.9-38.1-38.1C324.3,125.1,313.3,125.2,302.3,125.2z"/>
</g>
<g id="XMLID_1_">
	<path id="XMLID_33_" class="st2" d="M387.8,452.2c-36.2-1.3-66.6-18.1-88.8-49.8c-1.7-2.5-1.9-4.6-0.8-7.4
		c9-23.2,25.9-36.9,50.2-41.7c2.3-0.4,4.1-0.6,4.7,2.6c1,4.7,4.4,7.7,8.2,10.3c15.6,10.5,44.3,10.4,60-0.1c3.7-2.5,6.5-5.8,7.7-10.1
		c0.8-2.7,2.2-3.2,4.8-2.7c24,4.8,40.9,18.2,50.1,41.1c1.3,3.3,0.9,5.8-1.1,8.7C460.4,435.3,429.3,451,387.8,452.2z"/>
	<path id="XMLID_32_" class="st2" d="M138.1,278.5c-35.3-1.3-65.5-18.3-87.6-50.2c-1.3-1.9-1.7-3.6-0.8-6
		c8.8-23.5,25.4-37.6,50.1-42.4c2.8-0.6,4.6-0.5,5.3,3c0.8,3.9,3.7,6.6,6.8,8.9c15.5,11.4,46.5,11.4,62.1,0c3.2-2.4,5.6-5.4,6.6-9.1
		c0.9-3.2,2.3-3.5,5.3-2.9c24,4.7,40.5,18.3,49.7,40.9c1.4,3.3,0.9,5.8-1.1,8.7C212.1,261.9,180.9,277.7,138.1,278.5z"/>
	<path id="XMLID_31_" class="st2" d="M94,114.4c-0.1-27.5,20.6-50.8,45.4-52.3c26.4-1.6,49.3,17.6,51.7,44.9
		c2.1,23.8-3.2,46.2-19.9,64.4c-16.9,18.3-39.3,18.1-56.5,0.1c-12.2-12.8-17.5-28.8-19.7-46C94.5,121.4,94.2,117.2,94,114.4z"/>
	<path id="XMLID_30_" class="st2" d="M391.5,235.5c29,0.6,50.8,26,48.3,56.4c-1.1,13-3.5,25.7-9.5,37.5c-4.3,8.4-9.8,15.8-17.5,21.5
		c-13.7,10.1-30.5,10-43.9-0.5c-14.9-11.7-21.6-27.9-24.8-45.9c-2.2-12.5-3.1-25,1.9-37.3C353.8,248,372.1,235.1,391.5,235.5z"/>
	<path id="XMLID_29_" class="st2" d="M196.8,392c12,0,24-0.1,36,0.1c3.3,0.1,4.4-0.9,4.1-4.2c-0.2-2.8-0.2-5.7,0-8.5
		c0.4-4.7,4.6-7.1,8.1-4.2c10,8.3,19.8,16.8,29.5,25.5c2.5,2.2,2.2,5.3-0.3,7.5c-9.5,8.6-19,17.2-28.8,25.5c-3.7,3.2-8.1,1-8.6-3.8
		c-0.1-1.2,0-2.3-0.1-3.5c0-9.8,0-9.8-10.1-9.8c-22.8-0.1-45.7,0.5-68.5-0.5c-30.5-1.4-55.4-27.4-56.2-57.8
		c-0.4-14.1-0.2-28.3-0.1-42.5c0.1-7.6,5.4-12.9,12.4-12.8c6.9,0.1,11.7,5.1,11.9,12.7c0.3,14.5-0.8,29,0.5,43.5
		c1.7,18.7,17.1,32.6,35.9,32.8C174.1,392.1,185.4,392,196.8,392z"/>
	<path id="XMLID_28_" class="st2" d="M302.4,125.2c-11.7,0-23.3,0.1-35-0.1c-3.6-0.1-4.7,1.1-4.4,4.5c0.3,2.8,0.2,5.7,0,8.5
		c-0.4,4.5-4.8,6.8-8.3,3.9c-9.9-8.2-19.6-16.6-29.1-25.1c-2.7-2.4-2.4-5.5,0.2-7.9c9.4-8.5,18.9-16.9,28.3-25.2
		c1.7-1.5,3.7-2.2,6-1c2.1,1.2,3,2.9,3,5.3c-0.1,2.8,0.2,5.7-0.1,8.5c-0.4,3.6,1.1,4.4,4.5,4.4c22.3-0.1,44.6,0.5,66.9-0.2
		c34.4-1.1,64.3,26.4,63.5,63.6c-0.3,11.8,0,23.6,0,35.5c0,9-4.7,14.4-12.3,14.4c-7.6,0-12.2-5.3-12.3-14.4c-0.1-12.2,0-24.3,0-36.5
		c-0.1-22.4-15.6-38-38-38.1C324.3,125.1,313.4,125.2,302.4,125.2z"/>
</g>
</svg>
